<mxfile host="app.diagrams.net" modified="2024-05-31T15:31:03.643Z" agent="Mozilla/5.0 (Macintosh; Intel Mac OS X 10_15_7) AppleWebKit/537.36 (KHTML, like Gecko) Chrome/125.0.0.0 Safari/537.36" etag="WcW8A-ajQu4LDROvU6Oj" version="24.4.13" type="github">
  <diagram name="Page-1" id="TvMPDhVPDF_Y3RAlLZxE">
    <mxGraphModel dx="1284" dy="558" grid="1" gridSize="10" guides="1" tooltips="1" connect="1" arrows="1" fold="1" page="1" pageScale="1" pageWidth="850" pageHeight="1100" math="0" shadow="0">
      <root>
        <mxCell id="0" />
        <mxCell id="1" parent="0" />
        <mxCell id="WSBZjg87Y7S7DTTCFSNP-10" value="" style="rounded=0;whiteSpace=wrap;html=1;" vertex="1" parent="1">
          <mxGeometry x="150" y="710" width="230" height="60" as="geometry" />
        </mxCell>
        <mxCell id="WSBZjg87Y7S7DTTCFSNP-1" value="Request Validation" style="rounded=0;whiteSpace=wrap;html=1;" vertex="1" parent="1">
          <mxGeometry x="220" y="120" width="80" height="40" as="geometry" />
        </mxCell>
        <mxCell id="WSBZjg87Y7S7DTTCFSNP-2" value="Recommendation Strategy Resolving" style="rounded=0;whiteSpace=wrap;html=1;" vertex="1" parent="1">
          <mxGeometry x="220" y="210" width="80" height="40" as="geometry" />
        </mxCell>
        <mxCell id="WSBZjg87Y7S7DTTCFSNP-3" value="Sourcing" style="rounded=0;whiteSpace=wrap;html=1;" vertex="1" parent="1">
          <mxGeometry x="220" y="300" width="80" height="40" as="geometry" />
        </mxCell>
        <mxCell id="WSBZjg87Y7S7DTTCFSNP-18" style="edgeStyle=orthogonalEdgeStyle;rounded=0;orthogonalLoop=1;jettySize=auto;html=1;entryX=0;entryY=0.5;entryDx=0;entryDy=0;" edge="1" parent="1" source="WSBZjg87Y7S7DTTCFSNP-4" target="WSBZjg87Y7S7DTTCFSNP-17">
          <mxGeometry relative="1" as="geometry" />
        </mxCell>
        <mxCell id="WSBZjg87Y7S7DTTCFSNP-4" value="Relevance + Pre-Filtering" style="rounded=0;whiteSpace=wrap;html=1;" vertex="1" parent="1">
          <mxGeometry x="220" y="390" width="80" height="40" as="geometry" />
        </mxCell>
        <mxCell id="WSBZjg87Y7S7DTTCFSNP-19" style="edgeStyle=orthogonalEdgeStyle;rounded=0;orthogonalLoop=1;jettySize=auto;html=1;entryX=0;entryY=0.5;entryDx=0;entryDy=0;" edge="1" parent="1" source="WSBZjg87Y7S7DTTCFSNP-5" target="WSBZjg87Y7S7DTTCFSNP-17">
          <mxGeometry relative="1" as="geometry">
            <mxPoint x="430" y="460" as="targetPoint" />
          </mxGeometry>
        </mxCell>
        <mxCell id="WSBZjg87Y7S7DTTCFSNP-5" value="Response" style="rounded=0;whiteSpace=wrap;html=1;" vertex="1" parent="1">
          <mxGeometry x="220" y="470" width="80" height="40" as="geometry" />
        </mxCell>
        <mxCell id="WSBZjg87Y7S7DTTCFSNP-6" value="Ranking" style="rounded=0;whiteSpace=wrap;html=1;" vertex="1" parent="1">
          <mxGeometry x="220" y="550" width="80" height="40" as="geometry" />
        </mxCell>
        <mxCell id="WSBZjg87Y7S7DTTCFSNP-7" value="Filtering" style="rounded=0;whiteSpace=wrap;html=1;" vertex="1" parent="1">
          <mxGeometry x="220" y="630" width="80" height="40" as="geometry" />
        </mxCell>
        <mxCell id="WSBZjg87Y7S7DTTCFSNP-8" value="Metadata&lt;div&gt;Decoration&lt;/div&gt;" style="rounded=0;whiteSpace=wrap;html=1;" vertex="1" parent="1">
          <mxGeometry x="170" y="720" width="80" height="40" as="geometry" />
        </mxCell>
        <mxCell id="WSBZjg87Y7S7DTTCFSNP-9" value="Content Decoration" style="rounded=0;whiteSpace=wrap;html=1;" vertex="1" parent="1">
          <mxGeometry x="280" y="720" width="80" height="40" as="geometry" />
        </mxCell>
        <mxCell id="WSBZjg87Y7S7DTTCFSNP-11" value="Decoration&lt;div&gt;Metadata&lt;/div&gt;&lt;div&gt;Cache&lt;/div&gt;" style="shape=cylinder3;whiteSpace=wrap;html=1;boundedLbl=1;backgroundOutline=1;size=15;" vertex="1" parent="1">
          <mxGeometry x="445" y="710" width="85" height="70" as="geometry" />
        </mxCell>
        <mxCell id="WSBZjg87Y7S7DTTCFSNP-12" value="Cascaded Logging" style="rounded=0;whiteSpace=wrap;html=1;" vertex="1" parent="1">
          <mxGeometry x="220" y="820" width="80" height="40" as="geometry" />
        </mxCell>
        <mxCell id="WSBZjg87Y7S7DTTCFSNP-13" value="Client Facing&lt;div&gt;Decoration&lt;/div&gt;&lt;div&gt;Config&lt;/div&gt;" style="shape=cylinder3;whiteSpace=wrap;html=1;boundedLbl=1;backgroundOutline=1;size=15;" vertex="1" parent="1">
          <mxGeometry y="710" width="90" height="80" as="geometry" />
        </mxCell>
        <mxCell id="WSBZjg87Y7S7DTTCFSNP-14" value="Product Facing Filter Rules Engine" style="shape=cylinder3;whiteSpace=wrap;html=1;boundedLbl=1;backgroundOutline=1;size=15;" vertex="1" parent="1">
          <mxGeometry y="600" width="90" height="80" as="geometry" />
        </mxCell>
        <mxCell id="WSBZjg87Y7S7DTTCFSNP-16" value="Ranker&lt;div&gt;Service&lt;/div&gt;" style="rounded=0;whiteSpace=wrap;html=1;" vertex="1" parent="1">
          <mxGeometry x="450" y="560" width="80" height="40" as="geometry" />
        </mxCell>
        <mxCell id="WSBZjg87Y7S7DTTCFSNP-17" value="Inferencer Service" style="rounded=0;whiteSpace=wrap;html=1;" vertex="1" parent="1">
          <mxGeometry x="450" y="430" width="80" height="40" as="geometry" />
        </mxCell>
        <mxCell id="WSBZjg87Y7S7DTTCFSNP-21" value="Model Repo" style="shape=cylinder3;whiteSpace=wrap;html=1;boundedLbl=1;backgroundOutline=1;size=15;" vertex="1" parent="1">
          <mxGeometry x="580" y="340" width="60" height="60" as="geometry" />
        </mxCell>
        <mxCell id="WSBZjg87Y7S7DTTCFSNP-22" value="Feature&lt;div&gt;Store&lt;/div&gt;" style="rounded=0;whiteSpace=wrap;html=1;" vertex="1" parent="1">
          <mxGeometry x="570" y="470" width="80" height="40" as="geometry" />
        </mxCell>
        <mxCell id="WSBZjg87Y7S7DTTCFSNP-23" value="Science Model Training" style="rounded=0;whiteSpace=wrap;html=1;" vertex="1" parent="1">
          <mxGeometry x="640" y="570" width="80" height="40" as="geometry" />
        </mxCell>
        <mxCell id="WSBZjg87Y7S7DTTCFSNP-24" value="Engagement Logging Repo" style="rounded=0;whiteSpace=wrap;html=1;" vertex="1" parent="1">
          <mxGeometry x="760" y="570" width="80" height="40" as="geometry" />
        </mxCell>
        <mxCell id="WSBZjg87Y7S7DTTCFSNP-26" style="edgeStyle=orthogonalEdgeStyle;rounded=0;orthogonalLoop=1;jettySize=auto;html=1;entryX=0.5;entryY=0;entryDx=0;entryDy=0;" edge="1" parent="1" source="WSBZjg87Y7S7DTTCFSNP-25" target="WSBZjg87Y7S7DTTCFSNP-24">
          <mxGeometry relative="1" as="geometry" />
        </mxCell>
        <mxCell id="WSBZjg87Y7S7DTTCFSNP-27" value="Update more training/actual data" style="edgeLabel;html=1;align=center;verticalAlign=middle;resizable=0;points=[];" vertex="1" connectable="0" parent="WSBZjg87Y7S7DTTCFSNP-26">
          <mxGeometry x="-0.3498" y="1" relative="1" as="geometry">
            <mxPoint as="offset" />
          </mxGeometry>
        </mxCell>
        <mxCell id="WSBZjg87Y7S7DTTCFSNP-28" style="edgeStyle=orthogonalEdgeStyle;rounded=0;orthogonalLoop=1;jettySize=auto;html=1;entryX=0.5;entryY=0;entryDx=0;entryDy=0;" edge="1" parent="1" source="WSBZjg87Y7S7DTTCFSNP-25" target="WSBZjg87Y7S7DTTCFSNP-1">
          <mxGeometry relative="1" as="geometry" />
        </mxCell>
        <mxCell id="WSBZjg87Y7S7DTTCFSNP-29" value="Predict/Analyze/Rank" style="edgeLabel;html=1;align=center;verticalAlign=middle;resizable=0;points=[];" vertex="1" connectable="0" parent="WSBZjg87Y7S7DTTCFSNP-28">
          <mxGeometry x="0.7189" y="1" relative="1" as="geometry">
            <mxPoint as="offset" />
          </mxGeometry>
        </mxCell>
        <mxCell id="WSBZjg87Y7S7DTTCFSNP-25" value="Application/Usecase&lt;div&gt;Specific Front-end&lt;/div&gt;" style="rounded=0;whiteSpace=wrap;html=1;" vertex="1" parent="1">
          <mxGeometry x="40" y="20" width="110" height="50" as="geometry" />
        </mxCell>
      </root>
    </mxGraphModel>
  </diagram>
</mxfile>
